<?xml version="1.0" encoding="UTF-8" standalone="no"?>
<!-- Created with Inkscape (http://www.inkscape.org/) -->

<svg
   width="210mm"
   height="297mm"
   viewBox="0 0 210 297"
   version="1.1"
   id="svg1"
   xml:space="preserve"
   inkscape:version="1.3.2 (091e20e, 2023-11-25)"
   sodipodi:docname="logo.svg"
   xmlns:inkscape="http://www.inkscape.org/namespaces/inkscape"
   xmlns:sodipodi="http://sodipodi.sourceforge.net/DTD/sodipodi-0.dtd"
   xmlns="http://www.w3.org/2000/svg"
   xmlns:svg="http://www.w3.org/2000/svg"><sodipodi:namedview
     id="namedview1"
     pagecolor="#ffffff"
     bordercolor="#000000"
     borderopacity="0.25"
     inkscape:showpageshadow="2"
     inkscape:pageopacity="0.0"
     inkscape:pagecheckerboard="0"
     inkscape:deskcolor="#d1d1d1"
     inkscape:document-units="mm"
     inkscape:zoom="0.44727183"
     inkscape:cx="396.85039"
     inkscape:cy="561.17999"
     inkscape:window-width="2560"
     inkscape:window-height="1387"
     inkscape:window-x="0"
     inkscape:window-y="25"
     inkscape:window-maximized="1"
     inkscape:current-layer="layer1" /><defs
     id="defs1" /><g
     inkscape:label="Layer 1"
     inkscape:groupmode="layer"
     id="layer1"><path
       style="fill:#000000;stroke-width:1"
       d="m -142.17691,58.881867 c 0.48914,-1.350848 0.52104,-1.353245 6.2153,-0.479135 13.48033,2.069427 52.151116,6.377155 70.07782,7.806358 22.176014,1.767957 39.800473,1.73929 72.5444559,-0.118142 15.2116211,-0.862852 27.2922521,-2.325239 45.5066091,-5.508813 22.993784,-4.01894 27.659481,-4.366242 50.615435,-3.767924 14.05286,0.366274 25.52877,0.196672 31.11423,-0.459918 1.49697,-0.175823 6.02402,-1.071512 10.06009,-1.990099 9.83895,-2.239273 12.73541,-2.379376 21.84053,-1.056326 5.33639,0.775426 12.29772,1.204281 22.3266,1.375413 17.27682,0.295007 17.64594,0.281803 21.42474,-0.766219 4.73958,-1.314327 6.39453,-1.344697 13.7745,-0.252963 3.84805,0.569236 7.91633,0.946733 9.04067,0.838842 1.15969,-0.111192 6.06775,-2.203206 11.34289,-4.83464 5.11422,-2.551168 15.06315,-7.037533 22.10868,-9.969708 21.57869,-8.980548 22.69948,-9.701456 31.25948,-20.106551 6.40089,-7.780506 9.80826,-11.6521864 14.3522,-16.3076673 2.28397,-2.34007677 4.28529,-4.6207336 4.44728,-5.0681438 0.16193,-0.4473758 0.92164,-1.1313468 1.68811,-1.5198939 1.21376,-0.6153108 1.39622,-0.9278304 1.41412,-2.422185 0.0636,-5.314296 6.12843,-12.591309 10.88135,-13.056475 1.86821,-0.182773 2.03412,-0.321763 2.34806,-1.964941 1.04736,-5.481918 -6.22183,-6.991701 -13.94139,-2.895586 -6.05883,3.214916 -16.57595,13.7941313 -18.47369,18.5826958 -1.14341,2.8851965 -1.73912,3.620733 -2.66195,3.2865659 -0.5104,-0.1848575 -2.05417,0.4454988 -3.65975,1.49432029 -3.14969,2.05743871 -7.47941,5.38580541 -7.66198,5.88999311 -0.0671,0.1848576 -1.84791,2.0121978 -3.95767,4.0604641 l -3.83594,3.7241418 0.98545,2.192677 c 1.26175,2.807571 0.50755,3.160223 -1.65319,0.77296 l -1.68796,-1.864903 -5.83948,2.377673 c -12.92159,5.261236 -14.91703,6.288445 -18.04731,9.290288 -3.03631,2.911709 -4.18186,3.418641 -3.50571,1.551306 0.78842,-2.177388 6.2801,-6.842877 9.95609,-8.458361 3.32663,-1.461901 3.52024,-1.62511 2.44306,-2.059107 -3.98794,-1.606624 -6.29282,-2.009975 -10.0991,-1.767088 -2.26774,0.144549 -5.79146,0.198407 -7.83055,0.119531 -5.51166,-0.21335 -11.16172,1.132737 -11.24271,2.678448 -0.0139,0.289795 -0.45739,0.653776 -0.98239,0.80882 -0.7396,0.218214 -1.44724,1.474757 -3.14031,5.576014 -1.75052,4.240282 -2.22322,5.066789 -2.37455,4.151711 -0.29778,-1.801245 0.6413,-5.417774 2.07544,-7.99184 0.7231,-1.297857 1.21304,-2.48355 1.08926,-2.634666 -0.12404,-0.1515 -9.58039,-3.472778 -21.01322,-7.38348 -20.52595,-7.0190127 -20.93843,-7.1387181 -32.76415,-9.5064875 -6.58703,-1.31887914 -12.04452,-2.5432804 -12.12771,-2.7209103 -0.32767,-0.6993638 0.88159,-0.6831722 5.64589,0.075405 18.20982,2.8999636 18.76387,3.043471 40.79711,10.5644123 l 20.70479,7.0675195 2.27789,-1.066785 c 2.87324,-1.345601 8.67508,-2.146775 13.60931,-1.879288 2.09504,0.113625 4.47507,-0.0139 5.28896,-0.282499 0.81386,-0.268946 1.73658,-0.395913 2.05049,-0.28215 0.31412,0.113625 2.17492,-0.459224 4.13562,-1.273116 3.86331,-1.603671 8.34189,-2.2508801 10.42181,-1.5061002 1.49759,0.5349042 3.74375,-0.3276694 4.21144,-1.6193418 0.43393,-1.1983395 -0.60134,-2.9862076 -2.02836,-3.5029381 -0.64796,-0.2345471 -5.81166,0.086521 -11.47493,0.7138535 -9.33403,1.0338103 -10.63095,1.3176987 -13.86956,3.03621 -4.03876,2.1430226 -8.86203,2.8773436 -15.49496,2.3591516 -4.57213,-0.357204 -4.80716,-0.413982 -4.31117,-1.0410712 0.20362,-0.2574805 2.62215,-0.4577653 5.37479,-0.44543 5.67901,0.024318 10.73238,-0.8253249 12.42049,-2.0910055 1.40808,-1.0556664 1.22968,-1.4049145 -1.81799,-3.5592995 l -2.41722,-1.7086776 -2.14772,1.0470142 c -1.18124,0.575872 -2.53313,0.9074675 -3.00417,0.7368922 -1.22252,-0.4426842 -0.86212,-0.9414858 1.28779,-1.7823422 1.96122,-0.7670532 2.66875,-1.61472119 1.66006,-1.98891726 -1.50856,-0.56103502 -4.68359,-4.46131214 -5.93825,-7.29803614 -0.76296,-1.7250778 -2.3782,-4.220372 -3.58944,-5.545054 -2.2104,-2.417529 -2.82778,-3.97773 -1.36436,-3.447829 0.68353,0.247403 0.72213,0.06151 0.30161,-1.450538 -0.87949,-3.161092 0.0208,-3.623478 1.20126,-0.617395 0.59776,1.521283 1.9999,3.679213 3.11592,4.795306 1.24216,1.242261 1.85472,2.230655 1.57945,2.548422 -0.24705,0.285626 0.20501,1.7130563 1.00528,3.172281 l 1.45498,2.6532566 3.4288,-0.2675571 c 1.88586,-0.1473292 7.35985,-0.1115391 12.16444,0.079576 4.80457,0.1911124 8.95334,0.3099491 9.21943,0.2644297 0.26582,-0.045518 -0.20223,-0.7543362 -1.04083,-1.5749695 -2.07193,-2.0277305 -2.64811,-3.6765727 -3.22575,-9.2314617 -0.51552,-4.957472 0.25609,-10.930408 1.0975,-8.495506 0.22655,0.655374 0.31203,1.466905 0.19007,1.803399 -0.30057,0.830121 -0.14074,5.058415 0.18555,4.905629 0.14316,-0.06706 0.25679,-0.700545 0.25261,-1.407728 -0.0139,-2.49432 0.32559,-4.416627 0.65979,-3.721292 0.54811,1.140172 -0.1866,9.231252 -0.86706,9.549991 -0.77737,0.364085 1.70142,5.6261904 3.36676,7.1471272 1.03309,0.943536 1.70744,1.065813 5.44659,0.9876309 5.2999,-0.1108447 14.17027,-2.1134174 18.36729,-4.1467081 5.78999,-2.804999 10.29543,-8.299705 10.68934,-13.036321 0.24426,-2.939472 -1.12959,-6.430389 -3.10943,-7.899899 -2.31663,-1.719449 -5.36503,-1.712083 -15.24279,0.03649 -13.73924,2.432123 -36.83387,4.481292 -45.7952,4.063314 -5.87544,-0.273812 -6.56573,-0.422009 -16.01027,-3.433132 -5.42854,-1.730638 -11.26138,-3.308838 -12.96192,-3.506934 -14.24585,-1.65951 -23.92517,-0.872234 -31.26366,2.542759 -3.65321,1.700026 -5.28097,2.917858 -11.05574,8.271454 -7.29647,6.764243 -10.91606,9.09876 -15.75574,10.161931 -3.05701,0.671533 -3.865,0.714272 -16.97676,0.898052 -4.45325,0.06255 -11.22816,0.418361 -15.05533,0.790994 -26.043308,2.535636 -30.895044,2.1526137 -79.361852,-6.26565 -15.044137,-2.613054 -45.937555,-9.438105 -73.912778,-16.329037 -30.516753,-7.517015 -34.7758,-8.163354 -52.361696,-7.946634 -5.503604,0.06776 -10.122494,0.08131 -10.264194,0.03127 -0.14177,-0.05143 0.0518,-0.738282 0.42972,-1.526635 0.6356,-1.325551 0.9926,-1.439766 4.74604,-1.518539 21.041058,-0.441712 28.597685,0.579346 57.599827,7.783042 33.5769224,8.339942 63.94889,14.880689 84.195832,18.131916 6.420353,1.03096 15.545635,2.526671 20.278433,3.323779 17.919007,3.018072 26.829087,3.378961 44.195368,1.7903 10.92812,-0.999722 15.59218,-1.227006 24.87479,-1.212377 3.83772,0.007 8.21193,-0.174433 9.7205,-0.400918 4.53251,-0.680705 8.93944,-3.36374 15.48365,-9.426673 6.39621,-5.925853 9.89789,-8.455408 13.67322,-9.877452 11.9769,-4.511279 28.37803,-3.988676 44.01118,1.402273 8.74469,3.015708 12.20683,3.605375 20.84897,3.55162 6.8047,-0.04239 30.33134,-2.494077 40.27082,-4.196778 5.1243,-0.877828 10.49979,-1.458565 12.11363,-1.308664 4.43992,0.41235 7.04689,2.30446 8.5836,6.230277 1.3424,3.429344 1.1721,6.478652 -0.59797,10.704967 -2.05959,4.917409 -4.76494,7.596448 -10.51806,10.4153109 -8.19262,4.014146 -18.15645,5.4802855 -31.92087,4.6970053 -7.66316,-0.4360478 -10.13744,-0.5179474 -14.06325,-0.4654444 -1.56813,0.020846 -1.48105,0.1268287 2.77049,3.37204552 l 4.38952,3.35039688 9.54791,-1.0542419 c 5.25133,-0.5798336 10.99917,-1.0576478 12.77293,-1.0618169 2.80966,-0.00699 4.46452,-0.5648569 12.84733,-4.333719 5.29224,-2.3793758 12.02966,-5.3016128 14.97205,-6.4938029 5.20077,-2.1071635 5.42965,-2.2677665 8.21567,-5.7641735 1.57627,-1.97811 4.47515,-4.978355 6.4421,-6.667193 3.83743,-3.294905 11.22097,-7.374827 14.64072,-8.090001 1.15408,-0.241497 4.27365,-1.518714 6.93236,-2.8386 2.65875,-1.319888 6.34828,-2.775811 8.199,-3.235383 1.85073,-0.459606 4.40832,-1.23823 5.68357,-1.730256 7.82265,-3.018384 16.70135,-0.552313 19.27076,5.352449 1.23684,2.842353 1.32913,4.181802 0.4546,6.596968 -0.62097,1.714897 -1.79227,2.970779 -6.67098,7.152373 -3.25474,2.789745 -7.50225,6.431882 -9.43883,8.093651 -1.93662,1.661734 -6.51104,5.0804795 -10.1654,7.5971434 -8.04223,5.5384519 -14.08699,10.5654207 -20.02028,16.6493046 -11.42059,11.710562 -21.7638,22.047135 -23.52864,23.513448 -1.06733,0.886863 -3.96309,2.378854 -6.435,3.315545 -2.47188,0.936691 -14.545,6.297445 -26.8291,11.912793 -15.03131,6.87122 -23.25267,10.341531 -25.14189,10.612701 -3.10015,0.444977 -4.35881,0.24775 -21.66902,-3.393935 l -11.97683,-2.519756 -12.8526,-0.101121 c -14.68982,-0.115362 -18.23231,-0.328363 -26.97925,-1.620626 -7.65104,-1.130409 -9.1743,-1.041734 -18.31399,1.066333 -12.71564,2.93287 -20.23547,3.368605 -45.689146,2.647593 -17.591969,-0.498316 -26.25555,0.140727 -44.134999,3.256057 -25.059118,4.366173 -34.113963,5.351511 -61.2275362,6.662815 -32.5318528,1.573371 -46.4187258,1.111784 -84.6407508,-2.813269 -20.546798,-2.110013 -50.226728,-5.768099 -51.995348,-6.408532 -0.0945,-0.03475 0.049,-0.673304 0.31968,-1.420099 z m 361.2888,-0.828834 c 3.93117,0.833038 8.83332,1.864728 10.89372,2.292576 2.06038,0.427881 4.75492,0.682407 5.98784,0.565586 1.41941,-0.134473 10.37882,-3.933566 24.42696,-10.357804 12.20196,-5.579976 24.51609,-11.060607 27.3648,-12.179202 5.70597,-2.240559 5.76383,-2.288997 19.05596,-15.954562 9.11877,-9.375038 17.4396,-17.4328293 21.77346,-21.0852177 2.19212,-1.84739021 4.3939,-4.0710621 4.89288,-4.9413839 4.75492,-8.2944234 11.43289,-14.5394684 15.75691,-14.7354094 1.96373,-0.08895 3.06988,-1.491922 2.967,-3.762955 -0.10213,-2.255535 -1.99458,-4.475906 -4.62706,-5.429137 -2.7632,-1.000556 -8.43272,-0.30682 -11.19765,1.369993 l -1.99661,1.210919 0.40298,2.145768 c 0.27867,1.484069 0.1237,2.90177 -0.50248,4.597314 -1.37087,3.714413 -1.93694,4.350016 -19.6161,22.0744463 -3.06362,3.0714432 -9.33903,9.9775607 -13.94542,15.3470357 -4.60635,5.36944 -9.48449,10.583801 -10.84024,11.587451 -3.39904,2.516211 -6.80402,4.146915 -22.20336,10.633317 -7.33823,3.090936 -17.6025,7.744125 -22.80953,10.34036 -11.08107,5.525109 -12.2849,5.765354 -21.09752,4.209948 -3.77234,-0.665798 -7.36551,-0.953578 -9.5249,-0.762849 -5.59749,0.494459 -5.25526,0.694918 4.83836,2.833806 z m 49.85972,-44.022411 c -0.0414,-2.182219 -3.86274,-2.878977 -8.53584,-1.556346 l -3.52136,0.996666 3.71237,1.612913 c 3.70159,1.607875 3.71924,1.609855 6.03544,0.641232 1.2777,-0.534348 2.31691,-1.296815 2.30936,-1.694327 z M 279.325,8.8308886 c 1.75695,-1.6529774 2.97902,-3.0833968 2.71574,-3.1787444 -0.87991,-0.3186356 -5.62726,1.9165029 -8.519,4.0108799 -2.43861,1.7662539 -2.8339,2.2472999 -2.68585,3.2683919 0.16922,1.167936 0.23664,1.169187 2.73411,0.05108 1.4083,-0.630389 3.99803,-2.498664 5.755,-4.1516411 z m -1.42304,-4.1403834 c 2.24229,-0.9603189 4.38281,-1.6352561 4.75673,-1.4998795 1.08587,0.3932033 9.91787,-5.8915573 10.48658,-7.4621481 0.24357,-0.6726784 -1.98475,0.1938914 -13.41892,5.21919174 -7.16305,3.14809636 -7.60153,3.42145556 -6.97721,4.34987616 0.36644,0.5448424 0.75842,1.0240455 0.87108,1.06484 0.11258,0.040659 2.03944,-0.7115271 4.28174,-1.6718803 z m 17.12045,-8.2656858 c 1.03853,-0.9331122 1.20389,-1.3681871 0.4613,-1.2126917 -0.93315,0.1952815 -2.30508,1.5838303 -1.75979,1.7813005 0.26095,0.094509 0.84561,-0.1612287 1.29883,-0.5684701 z m 30.78677,-7.4540534 c 4.89878,-5.074988 5.60333,-6.614411 2.40356,-5.251714 -1.79273,0.763439 -3.25828,2.140764 -5.39679,5.071723 -1.86007,2.5493949 -2.34167,4.589078 -0.90146,3.8175085 0.43689,-0.2338517 2.18939,-1.8708106 3.89469,-3.6375175 z m 19.91213,-1.881198 c 2.96926,-2.483758 3.29857,-3.480909 0.78218,-2.368257 -1.76076,0.77852 -6.66411,5.063904 -6.98649,6.1060191 -0.21231,0.6880369 3.81351,-1.7377611 6.20439,-3.7377281 z m 4.94014,-1.938881 c 0.30717,-0.899545 0.24184,-0.902881 -0.77122,-0.04239 -1.52959,1.299004 -1.98672,2.597591 -0.5955,1.695647 0.56693,-0.368081 1.18253,-1.111853 1.36798,-1.652838 z m 6.37056,-5.304914 c 1.60293,-1.367769 2.9837,-2.678136 3.06834,-2.911813 0.2634,-0.727789 -1.073,-0.917301 -2.69335,-0.381945 -1.2605,0.416449 -1.7584,0.990375 -2.65937,3.065605 -0.60975,1.404255 -1.0009,2.589633 -0.86921,2.63418 0.13169,0.04448 1.55075,-1.038188 3.15365,-2.405993 z m -23.26205,-7.959038 c 2.21407,-1.183608 5.63453,-3.976828 5.42298,-4.428477 -0.23141,-0.494318 -8.54668,3.312141 -8.80726,4.031693 -0.37865,1.045694 1.71195,1.290769 3.38428,0.396784 z m 8.76573,-2.585464 c 4.59506,-0.786721 8.6631,0.697453 11.09025,4.045348 l 1.3347,1.841587 1.44243,-0.621391 c 0.7933,-0.341916 2.47237,-0.558011 3.73124,-0.480559 2.82174,0.173738 3.55509,-0.872512 2.54289,-3.627509 -1.02029,-2.777165 -2.65642,-4.348729 -5.71312,-5.487825 -3.50492,-1.306058 -6.95408,-1.026791 -11.44808,0.927031 -3.02874,1.31683 -6.34536,3.512981 -5.67296,3.756458 0.11084,0.03996 1.32246,-0.119186 2.6929,-0.3538 z M 132.97908,31.562898 c -0.93623,-4.312975 -1.71965,-14.50479 -1.45436,-18.920582 0.40263,-6.7023573 4.16017,-18.6329753 5.69353,-18.0777435 0.21857,0.079222 -0.46478,2.9130289 -1.5187,6.2974431 -2.5043,8.0416345 -2.94737,13.6755034 -1.8999,24.1567994 0.4445,4.447344 0.751,8.24383 0.68116,8.43668 -0.31238,0.862296 -1.12638,-0.164009 -1.50173,-1.892597 z m -3.92094,-6.521774 c -1.85191,-8.197443 -2.38043,-16.0137725 -1.28695,-19.0335469 0.72806,-2.0106336 0.89173,-1.3021651 1.05178,4.5529419 0.0775,2.827794 0.67313,8.090072 1.32405,11.694022 0.65096,3.603915 1.09569,6.795099 0.98839,7.091426 -0.46541,1.285313 -1.12165,-0.07471 -2.07727,-4.304843 z m 96.00861,6.166931 c 0.23629,-0.652872 0.44092,-0.880885 0.45437,-0.506794 0.0139,0.374093 -0.18,0.908268 -0.4298,1.187013 -0.24983,0.278675 -0.26095,-0.0278 -0.0243,-0.680219 z"
       id="path1"
       inkscape:export-filename="logobackground.png"
       inkscape:export-xdpi="95.940231"
       inkscape:export-ydpi="95.940231" /></g></svg>
