<?xml version="1.0" encoding="UTF-8" standalone="no"?>
<!-- Created with Inkscape (http://www.inkscape.org/) -->

<svg
   width="100"
   height="80"
   viewBox="0 0 26.458333 21.166666"
   version="1.1"
   id="svg1"
   xml:space="preserve"
   inkscape:export-filename="repairlablogo.png"
   inkscape:export-xdpi="300"
   inkscape:export-ydpi="300"
   inkscape:version="1.3.2 (091e20e, 2023-11-25)"
   sodipodi:docname="repairlablogo.svg"
   xmlns:inkscape="http://www.inkscape.org/namespaces/inkscape"
   xmlns:sodipodi="http://sodipodi.sourceforge.net/DTD/sodipodi-0.dtd"
   xmlns="http://www.w3.org/2000/svg"
   xmlns:svg="http://www.w3.org/2000/svg"><sodipodi:namedview
     id="namedview1"
     pagecolor="#ffffff"
     bordercolor="#000000"
     borderopacity="0.25"
     inkscape:showpageshadow="2"
     inkscape:pageopacity="0.0"
     inkscape:pagecheckerboard="0"
     inkscape:deskcolor="#d1d1d1"
     inkscape:document-units="mm"
     inkscape:zoom="2.8411027"
     inkscape:cx="213.82542"
     inkscape:cy="111.22442"
     inkscape:window-width="2560"
     inkscape:window-height="1343"
     inkscape:window-x="0"
     inkscape:window-y="25"
     inkscape:window-maximized="1"
     inkscape:current-layer="g66" /><defs
     id="defs1"><inkscape:path-effect
       effect="spiro"
       id="path-effect61"
       is_visible="true"
       lpeversion="1" /><inkscape:path-effect
       effect="spiro"
       id="path-effect60"
       is_visible="true"
       lpeversion="1" /><inkscape:path-effect
       effect="bspline"
       id="path-effect59"
       is_visible="true"
       lpeversion="1.3"
       weight="33.333333"
       steps="2"
       helper_size="0"
       apply_no_weight="true"
       apply_with_weight="true"
       only_selected="false"
       uniform="false" /><inkscape:path-effect
       effect="spiro"
       id="path-effect58"
       is_visible="true"
       lpeversion="1" /><inkscape:path-effect
       effect="spiro"
       id="path-effect2"
       is_visible="true"
       lpeversion="1" /><inkscape:path-effect
       effect="spiro"
       id="path-effect1"
       is_visible="true"
       lpeversion="1" /></defs><g
     inkscape:label="Layer 1"
     inkscape:groupmode="layer"
     id="layer1"><g
       id="g66"
       transform="matrix(1.0953986,-0.04030188,0.04029334,1.0956311,-1.8340957,2.7436327)"
       style="stroke-width:0.912196"><path
         style="fill:#bda9ff;fill-opacity:1;stroke:none;stroke-width:0.0912196;stroke-miterlimit:10;stroke-dasharray:none;stroke-opacity:1"
         d="m 19.499269,10.399958 c 0,0 0.874083,-0.01571 1.230549,-0.136327 0.356466,-0.120619 0.718765,-0.157053 0.932979,-0.4894232 0.214214,-0.3323697 0.01045,-0.9492174 0.147287,-1.2986011 0.0512,-0.1307398 0.171418,-0.2955846 0.363966,-0.4567531 0.192549,-0.1611688 0.433139,-0.3001763 0.599343,-0.3917786 0.332405,-0.1832046 0.970912,-0.1475084 1.062734,-0.1966368 0.09182,-0.049129 0.178871,-0.5764937 0.274588,-0.5405284 0.07752,0.029131 0.0031,0.1385239 0.01353,0.2885116 0.0074,0.1058987 0.02392,0.2821099 0.02694,0.3825056 0.0031,0.100395 0.05119,0.2785587 0.05966,0.3849101 0.0087,0.109826 0.02295,0.1378852 -0.02375,0.1349144 -0.01576,-0.00101 -0.04564,-0.03676 -0.08006,-0.1067504 -0.05725,-0.1163908 -0.209217,-0.343168 -0.233749,-0.3526178 -0.04906,-0.0189 -0.621045,-0.027611 -1.079299,0.219156 -0.229125,0.1233833 -0.427222,0.2618928 -0.531924,0.3528909 -0.06605,0.057405 -0.13059,0.105399 -0.266911,0.2963711 -0.107387,0.1504311 -0.111719,0.6663955 0.0566,0.7299242 0.08579,0.032382 0.391486,0.086783 0.761299,0.064665 0.369813,-0.022111 1.152301,0.1272797 1.233205,0.076545 0.08091,-0.050735 0.219766,-0.7594564 0.336379,-0.759255 0.05831,1.008e-4 0.03658,0.1389361 0.02944,0.2264295 -0.01079,0.131947 -0.04476,0.5389971 -0.04586,0.6673739 -0.0022,0.2567523 0.08295,0.5703791 -0.0015,0.5556701 -0.08448,-0.01472 -0.210825,-0.4102976 -0.27043,-0.4307264 -0.05961,-0.02043 -0.586996,-0.1250009 -0.932249,-0.1153295 -0.345254,0.00967 -0.941999,-0.053184 -1.144587,0.2493963 -0.101291,0.1512897 -0.273718,0.4938226 -0.199143,0.6655906 0.110572,0.254676 0.433524,0.324909 0.612815,0.422036 0.258253,0.139903 0.77039,0.255079 1.156983,0.370579 0.386593,0.1155 0.843043,0.432016 0.965966,0.374078 0.06146,-0.02897 0.174559,-0.334186 0.197687,-0.421837 0.02313,-0.08765 0.033,-0.220593 0.09045,-0.205256 0.07453,0.01989 2.2e-5,0.329285 -0.0038,0.52658 -0.0038,0.197294 0.0098,0.485631 0.01267,0.605611 0.0026,0.103788 -0.0031,0.287593 -0.03242,0.28166 -0.01868,-0.0038 -0.02832,-0.02468 -0.04178,-0.05955 -0.01353,-0.03488 -0.150745,-0.458948 -0.201891,-0.492757 -0.05115,-0.03381 -0.35186,-0.162019 -0.660465,-0.269122 -0.308598,-0.107097 -0.65323,-0.221201 -0.848487,-0.283044 -0.390513,-0.123685 -0.603516,-0.142001 -0.893965,-0.197413 -0.290448,-0.05541 -0.57363,-0.105959 -0.83614,-0.115329 -0.26251,-0.0094 -0.497996,0.01362 -0.757845,0.05981 -0.259849,0.04618 -0.86001,0.318616 -0.86001,0.318616"
         id="path64"
         sodipodi:nodetypes="czzssszsssssssssszzzssszzzssszszsssszssszzzc" /><path
         style="fill:#9676ff;fill-opacity:1;stroke:#3900f5;stroke-width:0.0912196;stroke-miterlimit:10;stroke-dasharray:none;stroke-opacity:1"
         d="m 17.304725,10.472714 c 0,0 1.090369,-0.01271 1.426743,0.01667 0.336374,0.02938 1.240531,-0.149593 1.40048,-0.0044 0.159941,0.145231 0.04716,0.348692 -0.0026,0.510522 -0.04968,0.16183 -0.562296,0.349524 -0.835028,0.46629 -0.272728,0.116763 -1.236279,0.07194 -1.500367,0.06703 -0.264089,-0.0049 -0.315546,-0.01939 -0.315546,-0.01939"
         id="path62-9"
         sodipodi:nodetypes="czzzzzc" /><path
         style="fill:#825cff;fill-opacity:1;stroke:#3900f5;stroke-width:0.0912196;stroke-miterlimit:10;stroke-dasharray:none;stroke-opacity:1"
         d="m 16.686281,10.465363 c 0,0 1.090369,-0.01355 1.426743,0.01779 0.336375,0.03133 0.550068,0.02136 0.710017,0.176234 0.159941,0.15487 0.07845,0.322736 0.02877,0.495305 -0.04968,0.17257 -0.01507,0.399982 -0.398774,0.390434 -0.383677,-0.0095 -1.013346,0.05173 -1.277434,0.04649 -0.264089,-0.0052 -0.315546,-0.02068 -0.315546,-0.02068"
         id="path62-3"
         sodipodi:nodetypes="czzzzzc" /><path
         style="fill:#6f43ff;fill-opacity:1;stroke:#3900f5;stroke-width:0.0912196;stroke-miterlimit:10;stroke-dasharray:none;stroke-opacity:1"
         d="m 15.474779,10.44824 c 0,0 1.090369,-0.01355 1.426744,0.01779 0.336374,0.03133 0.600918,0.0029 0.760867,0.157743 0.159941,0.15487 0.138536,0.345851 0.08886,0.51842 -0.04968,0.172569 -0.0567,0.242804 -0.32943,0.367319 -0.272728,0.124515 -1.193638,0.07022 -1.457727,0.06498 -0.264088,-0.0052 -0.315546,-0.02067 -0.315546,-0.02067"
         id="path62"
         sodipodi:nodetypes="czzzzzc" /><path
         style="fill:#5b29ff;fill-opacity:1;stroke:#3900f5;stroke-width:0.0912196;stroke-miterlimit:10;stroke-dasharray:none;stroke-opacity:1"
         d="m 11.494478,10.385405 c 0.23925,0.36278 1.874588,0.07833 1.874588,0.07833 0,0 2.371296,-0.134344 2.490684,0.07833 0.119391,0.21267 0.169634,0.396919 0.165285,0.505705 -0.0043,0.108785 -0.04445,0.386456 -0.142544,0.4894 -0.09811,0.102943 -3.244693,-0.218914 -3.941901,-0.268262 -0.697208,-0.04935 -1.048123,-0.100195 -1.296773,-0.152669 -0.24865,-0.05247 -0.628916,-0.162053 -0.8307749,-0.22948 C 9.6111832,10.819333 8.8367403,10.743479 8.3047156,10.537584 7.7726909,10.331689 7.2329626,10.137951 6.8161346,9.949986 6.3993066,9.7620214 6.0421504,9.41057 5.7976317,9.4309412 5.553113,9.4513124 5.6966655,9.5046975 5.5332127,9.6268072 5.3697599,9.7489169 5.1495498,10.012153 4.8183019,10.165439 4.487054,10.318725 3.8870611,10.33611 3.5549668,10.449444 c -0.3320943,0.113334 -0.494342,0.09644 -0.6737181,0.354921 -0.1793762,0.258481 -0.1680472,0.39525 -0.2566452,0.546062 -0.088599,0.150812 -0.1438108,0.287216 -0.3035922,0.342766 -0.1597814,0.05555 -0.5577346,0.03152 -0.5484246,-0.09793 0.00931,-0.12945 0.3703309,-0.04077 0.5092644,-0.1925 0.1389337,-0.151734 0.2133317,-0.377185 0.1820207,-0.52546 -0.031311,-0.148279 -0.0777,-0.234049 -0.230314,-0.244159 C 2.0809436,10.623034 1.9691686,10.792768 1.8391203,10.939442 1.709072,11.086113 1.5590939,11.191703 1.4386114,11.161653 1.3181288,11.131604 1.6367005,10.765055 1.880313,10.57676 2.1239255,10.388465 2.6064274,10.299195 3.0163354,10.204615 3.4262434,10.110041 3.9709166,10.122921 4.3325348,10.023231 4.694153,9.9235453 4.9795204,9.8473655 5.1813859,9.663318 5.3832514,9.4792705 5.528812,9.243753 5.5209262,9.0317729 5.5130404,8.8197928 5.3541703,8.7069273 5.2221307,8.5632072 5.0900911,8.4194871 4.9556224,8.3307667 4.7656082,8.3355832 4.575594,8.3403997 4.465288,8.456038 4.3325348,8.5292532 4.1997816,8.6024684 4.1734502,8.6021066 3.965831,8.6446976 3.7582121,8.6872876 3.199802,8.7436206 3.083026,8.7329776 2.96625,8.7223346 2.9570055,8.6945797 2.7001147,8.5853435 2.4432239,8.4761071 2.409989,8.4638721 2.2725193,8.4532411 2.1350496,8.4426104 2.0796059,8.5007906 1.9557522,8.5835796 1.8318985,8.6663682 1.6591901,9.0490352 1.5730661,9.0205922 1.4869428,8.9921498 1.5675751,8.7051754 1.6501661,8.5428348 1.7327568,8.3804942 1.8832405,8.1698546 2.1730583,8.1218047 2.4628761,8.0737548 2.8615028,8.4457112 3.1984701,8.4952992 3.5354374,8.5448872 3.7580573,8.5270913 4.0114167,8.4166609 4.2647761,8.3062305 4.6135869,8.0846623 4.6584936,7.9520345 4.7034003,7.8194067 4.4499931,7.1651022 4.3121624,6.9469952 4.1743317,6.7288882 4.0995028,6.6865321 3.9658313,6.6074548 3.8321598,6.5283775 3.7708198,6.4716095 3.632819,6.5071594 3.4948182,6.5427093 3.458237,6.7601829 3.3016375,6.8681158 3.145038,6.9760487 2.7519297,7.1047231 2.6207285,7.137136 2.4895274,7.16955 2.1758286,7.131062 2.0915686,7.116765 2.0073087,7.1024685 1.7665307,7.0729922 1.7724007,6.9673672 1.7782733,6.8617422 2.4316044,6.9025962 2.5536038,6.8803932 2.6756032,6.8581905 3.1595561,6.7107221 3.2057841,6.6181631 3.2520121,6.5256037 3.2719431,6.297901 3.1812311,6.250152 3.0905194,6.202403 2.5677995,6.141297 2.3762584,6.184858 2.1847173,6.2284188 2.1102797,6.2560388 1.9520961,6.3290317 1.7939124,6.4020246 1.7083834,6.5138556 1.6569569,6.4444755 1.6055304,6.3750954 1.8415775,6.152804 2.1187318,6.0438177 2.3958861,5.9348314 2.8904449,5.9103407 3.2935415,6.003073 c 0.4030966,0.092732 0.845997,0.259226 1.1544371,0.6111726 0.3084401,0.3519466 0.299072,0.7711056 0.6885411,1.3186738 0.3894691,0.5475682 1.0071771,1.3147498 1.7857896,1.6989018 0.7786125,0.3841518 1.9876494,0.5347268 2.6104887,0.6031128 0.622839,0.06839 0.745565,-0.09045 0.866427,-0.187791 0.120862,-0.097339 0.254644,-0.2032655 0.27102,-0.3021367 C 10.686622,9.646135 9.9946089,9.2959434 9.1548479,8.904423 8.3150869,8.5129026 6.5084984,7.3200493 6.1118012,6.4964214 5.715104,5.6727935 5.4122563,4.4576498 6.4007981,3.9206246 6.7884651,3.7745193 7.2568935,3.5472464 7.5637969,3.4823097 c 0.3069011,-0.064934 0.387667,-0.1298688 0.92071,-0.1948054 0.5330407,-0.064937 1.003269,-0.2197205 1.5506661,-0.097404 0.547396,0.1223157 0.823792,0.5032493 1.259918,0.6818223 0.436123,0.1785725 0.834064,0.495383 1.308375,0.4870164 0.474311,-0.00837 1.308368,0.178577 1.550654,0.5357266 0.640989,0.6311309 0.900334,1.3378057 0.775346,2.2402743 -0.08618,0.308302 -0.581502,0.8766289 -1.114543,1.2662421 C 13.28188,8.7907956 12.755841,9.2578957 12.42265,9.4524491 12.089459,9.6470024 11.341688,9.67918 11.2886,9.8781149 c -0.05309,0.1989351 0.02984,0.2817311 0.205878,0.5072901 z"
         id="path61"
         sodipodi:nodetypes="zczzzzzzzzzzzzzzzzzzzzzzzzzzzzzzzzzzzzzzzzzzzzzzzzzzzzzzzzzzzzzzzzzzzzzzzzzzz" /><path
         style="fill:#bda9ff;fill-opacity:1;stroke:none;stroke-width:0.0912196;stroke-miterlimit:10;stroke-dasharray:none;stroke-opacity:1"
         d="m 20.852702,10.955394 c 0,0 0.455072,0.263174 0.655451,0.505633 0.490244,0.593196 0.643156,1.866588 1.12363,2.247261 0.400704,0.317471 1.298527,0.264917 1.619901,0.486906 0.259163,0.179016 0.29741,0.402188 0.344254,0.480332 0.0113,0.01875 0.02298,0.02916 0.03839,0.02859 0.0796,-0.0029 0.03908,-0.318613 0.0022,-0.499557 -0.0368,-0.180944 -0.05153,-0.255931 -0.04377,-0.47956 0.0077,-0.223627 0.03622,-0.365818 -0.04732,-0.367464 -0.08353,-0.0016 -0.137269,0.393919 -0.241175,0.465649 -0.10391,0.07173 -0.551884,-0.02991 -0.745547,-0.04935 -0.193663,-0.01944 -0.54335,-0.09853 -0.758451,-0.29027 -0.215068,-0.191749 -0.777096,-1.715408 -1.058052,-2.134903 -0.280956,-0.419496 -0.440088,-0.49627 -0.440088,-0.49627"
         id="path65"
         sodipodi:nodetypes="czzssszzzzzzzc" /><ellipse
         style="fill:#5b29ff;fill-opacity:1;stroke:#3900f5;stroke-width:0.0912196;stroke-miterlimit:10;stroke-dasharray:none;stroke-opacity:1"
         id="path66"
         cx="13.413733"
         cy="6.2454829"
         transform="rotate(2.1066283)"
         rx="0.80829608"
         ry="0.84853071" /></g><text
       xml:space="preserve"
       style="font-weight:bold;font-size:3.59311px;line-height:1;font-family:Inter;-inkscape-font-specification:'Inter Bold';letter-spacing:0px;fill:#6f43ff;fill-opacity:1;stroke:#3900f5;stroke-width:0.1;stroke-miterlimit:10;stroke-dasharray:none;stroke-opacity:1"
       x="-0.2031412"
       y="26.669737"
       id="text62"><tspan
         sodipodi:role="line"
         style="font-size:3.59311px;fill:#000000;fill-opacity:1;stroke:none;stroke-width:0.1;stroke-opacity:1"
         x="-0.2031412"
         y="26.669737"
         id="tspan63">The REPAIR Lab</tspan></text></g></svg>
