<?xml version="1.0" encoding="UTF-8" standalone="no"?>
<!-- Created with Inkscape (http://www.inkscape.org/) -->

<svg
   width="100"
   height="80"
   viewBox="0 0 26.458333 21.166666"
   version="1.1"
   id="svg1"
   xml:space="preserve"
   inkscape:export-filename="repairlablogo.png"
   inkscape:export-xdpi="300"
   inkscape:export-ydpi="300"
   inkscape:version="1.3.2 (091e20e, 2023-11-25)"
   sodipodi:docname="repairlablogo_shortened.svg"
   xmlns:inkscape="http://www.inkscape.org/namespaces/inkscape"
   xmlns:sodipodi="http://sodipodi.sourceforge.net/DTD/sodipodi-0.dtd"
   xmlns:xlink="http://www.w3.org/1999/xlink"
   xmlns="http://www.w3.org/2000/svg"
   xmlns:svg="http://www.w3.org/2000/svg"><sodipodi:namedview
     id="namedview1"
     pagecolor="#ffffff"
     bordercolor="#000000"
     borderopacity="0.25"
     inkscape:showpageshadow="2"
     inkscape:pageopacity="0.0"
     inkscape:pagecheckerboard="0"
     inkscape:deskcolor="#d1d1d1"
     inkscape:document-units="mm"
     inkscape:zoom="4.5698669"
     inkscape:cx="61.489755"
     inkscape:cy="63.787415"
     inkscape:window-width="1680"
     inkscape:window-height="953"
     inkscape:window-x="0"
     inkscape:window-y="25"
     inkscape:window-maximized="1"
     inkscape:current-layer="g1"
     showgrid="false" /><defs
     id="defs1"><linearGradient
       id="linearGradient3"
       inkscape:collect="always"><stop
         style="stop-color:#9676ff;stop-opacity:1;"
         offset="0"
         id="stop3" /><stop
         style="stop-color:#ffffff;stop-opacity:0;"
         offset="1"
         id="stop4" /></linearGradient><inkscape:path-effect
       effect="spiro"
       id="path-effect61"
       is_visible="true"
       lpeversion="1" /><inkscape:path-effect
       effect="spiro"
       id="path-effect60"
       is_visible="true"
       lpeversion="1" /><inkscape:path-effect
       effect="bspline"
       id="path-effect59"
       is_visible="true"
       lpeversion="1.3"
       weight="33.333333"
       steps="2"
       helper_size="0"
       apply_no_weight="true"
       apply_with_weight="true"
       only_selected="false"
       uniform="false" /><inkscape:path-effect
       effect="spiro"
       id="path-effect58"
       is_visible="true"
       lpeversion="1" /><inkscape:path-effect
       effect="spiro"
       id="path-effect2"
       is_visible="true"
       lpeversion="1" /><inkscape:path-effect
       effect="spiro"
       id="path-effect1"
       is_visible="true"
       lpeversion="1" /><linearGradient
       inkscape:collect="always"
       xlink:href="#linearGradient3"
       id="linearGradient4"
       x1="12.885283"
       y1="11.024833"
       x2="15.387811"
       y2="11.031214"
       gradientUnits="userSpaceOnUse" /></defs><g
     inkscape:label="Layer 1"
     inkscape:groupmode="layer"
     id="layer1"><g
       id="g66"
       transform="matrix(1.0953986,-0.04030188,0.04029334,1.0956311,-1.8340957,2.7436327)"
       style="stroke-width:0.912196"><g
         id="g1"
         transform="matrix(1.7284518,0,0,1.7284518,-18.035385,-10.714632)"
         style="stroke-width:0.527753"><path
           style="fill:#bda9ff;fill-opacity:1;stroke:none;stroke-width:0.0527753;stroke-miterlimit:10;stroke-dasharray:none;stroke-opacity:1"
           d="m 19.499269,10.399958 c 0,0 0.874083,-0.01571 1.230549,-0.136327 0.356466,-0.120619 0.718765,-0.157053 0.932979,-0.4894232 0.214214,-0.3323697 0.01045,-0.9492174 0.147287,-1.2986011 0.0512,-0.1307398 0.171418,-0.2955846 0.363966,-0.4567531 0.192549,-0.1611688 0.433139,-0.3001763 0.599343,-0.3917786 0.332405,-0.1832046 0.970912,-0.1475084 1.062734,-0.1966368 0.09182,-0.049129 0.178871,-0.5764937 0.274588,-0.5405284 0.07752,0.029131 0.0031,0.1385239 0.01353,0.2885116 0.0074,0.1058987 0.02392,0.2821099 0.02694,0.3825056 0.0031,0.100395 0.05119,0.2785587 0.05966,0.3849101 0.0087,0.109826 0.02295,0.1378852 -0.02375,0.1349144 -0.01576,-0.00101 -0.04564,-0.03676 -0.08006,-0.1067504 -0.05725,-0.1163908 -0.209217,-0.343168 -0.233749,-0.3526178 -0.04906,-0.0189 -0.621045,-0.027611 -1.079299,0.219156 -0.229125,0.1233833 -0.427222,0.2618928 -0.531924,0.3528909 -0.06605,0.057405 -0.13059,0.105399 -0.266911,0.2963711 -0.107387,0.1504311 -0.111719,0.6663955 0.0566,0.7299242 0.08579,0.032382 0.391486,0.086783 0.761299,0.064665 0.369813,-0.022111 1.152301,0.1272797 1.233205,0.076545 0.08091,-0.050735 0.219766,-0.7594564 0.336379,-0.759255 0.05831,1.008e-4 0.03658,0.1389361 0.02944,0.2264295 -0.01079,0.131947 -0.04476,0.5389971 -0.04586,0.6673739 -0.0022,0.2567523 0.08295,0.5703791 -0.0015,0.5556701 -0.08448,-0.01472 -0.210825,-0.4102976 -0.27043,-0.4307264 -0.05961,-0.02043 -0.586996,-0.1250009 -0.932249,-0.1153295 -0.345254,0.00967 -0.941999,-0.053184 -1.144587,0.2493963 -0.101291,0.1512897 -0.273718,0.4938226 -0.199143,0.6655906 0.110572,0.254676 0.433524,0.324909 0.612815,0.422036 0.258253,0.139903 0.77039,0.255079 1.156983,0.370579 0.386593,0.1155 0.843043,0.432016 0.965966,0.374078 0.06146,-0.02897 0.174559,-0.334186 0.197687,-0.421837 0.02313,-0.08765 0.033,-0.220593 0.09045,-0.205256 0.07453,0.01989 2.2e-5,0.329285 -0.0038,0.52658 -0.0038,0.197294 0.0098,0.485631 0.01267,0.605611 0.0026,0.103788 -0.0031,0.287593 -0.03242,0.28166 -0.01868,-0.0038 -0.02832,-0.02468 -0.04178,-0.05955 -0.01353,-0.03488 -0.150745,-0.458948 -0.201891,-0.492757 -0.05115,-0.03381 -0.35186,-0.162019 -0.660465,-0.269122 -0.308598,-0.107097 -0.65323,-0.221201 -0.848487,-0.283044 -0.390513,-0.123685 -0.603516,-0.142001 -0.893965,-0.197413 -0.290448,-0.05541 -0.57363,-0.105959 -0.83614,-0.115329 -0.26251,-0.0094 -0.497996,0.01362 -0.757845,0.05981 -0.259849,0.04618 -0.86001,0.318616 -0.86001,0.318616"
           id="path64"
           sodipodi:nodetypes="czzssszsssssssssszzzssszzzssszszsssszssszzzc" /><path
           style="fill:#9676ff;fill-opacity:1;stroke:#3900f5;stroke-width:0.0527753;stroke-miterlimit:10;stroke-dasharray:none;stroke-opacity:1"
           d="m 17.304725,10.472714 c 0,0 1.090369,-0.01271 1.426743,0.01667 0.336374,0.02938 1.240531,-0.149593 1.40048,-0.0044 0.159941,0.145231 0.04716,0.348692 -0.0026,0.510522 -0.04968,0.16183 -0.562296,0.349524 -0.835028,0.46629 -0.272728,0.116763 -1.236279,0.07194 -1.500367,0.06703 -0.264089,-0.0049 -0.315546,-0.01939 -0.315546,-0.01939"
           id="path62-9"
           sodipodi:nodetypes="czzzzzc" /><path
           style="fill:#825cff;fill-opacity:1;stroke:#3900f5;stroke-width:0.0527753;stroke-miterlimit:10;stroke-dasharray:none;stroke-opacity:1"
           d="m 16.686281,10.465363 c 0,0 1.090369,-0.01355 1.426743,0.01779 0.336375,0.03133 0.550068,0.02136 0.710017,0.176234 0.159941,0.15487 0.07845,0.322736 0.02877,0.495305 -0.04968,0.17257 -0.01507,0.399982 -0.398774,0.390434 -0.383677,-0.0095 -1.013346,0.05173 -1.277434,0.04649 -0.264089,-0.0052 -0.315546,-0.02068 -0.315546,-0.02068"
           id="path62-3"
           sodipodi:nodetypes="czzzzzc" /><path
           style="fill:#6f43ff;fill-opacity:1;stroke:#3900f5;stroke-width:0.0527753;stroke-miterlimit:10;stroke-dasharray:none;stroke-opacity:1"
           d="m 15.474779,10.44824 c 0,0 1.090369,-0.01355 1.426744,0.01779 0.336374,0.03133 0.600918,0.0029 0.760867,0.157743 0.159941,0.15487 0.138536,0.345851 0.08886,0.51842 -0.04968,0.172569 -0.0567,0.242804 -0.32943,0.367319 -0.272728,0.124515 -1.193638,0.07022 -1.457727,0.06498 -0.264088,-0.0052 -0.315546,-0.02067 -0.315546,-0.02067"
           id="path62"
           sodipodi:nodetypes="czzzzzc" /><path
           style="fill:#5b29ff;fill-opacity:1;stroke:#3900f5;stroke-width:0.0527753;stroke-miterlimit:10;stroke-dasharray:none;stroke-opacity:1"
           d="m 13.003636,10.511818 c 0,0 2.908323,-0.178533 3.027711,0.03414 0.119391,0.21267 0.169634,0.396919 0.165285,0.505705 -0.0043,0.108785 0.0011,0.515475 -0.435077,0.511349 -0.141192,-0.0013 -2.213368,9.04e-4 -3.193801,-0.15448 -0.561484,-0.08899 -0.333985,-0.574622 -0.314562,-0.666779 0.02058,-0.09764 0.122032,-0.204052 0.750444,-0.229935 z"
           id="path61"
           sodipodi:nodetypes="czzsssc" /><path
           style="fill:url(#linearGradient4);stroke:none;stroke-width:0.0527753;stroke-miterlimit:10;stroke-dasharray:none;stroke-opacity:1"
           d="m 12.814924,10.488736 c 0.126833,-0.01843 2.383197,-0.08707 2.603824,-0.006 0.220626,0.08111 0.149864,0.421126 0.145388,0.534898 -0.0045,0.113773 0.0064,0.589263 -0.36953,0.587899 -0.121706,-4.05e-4 -1.891169,-0.03344 -2.735246,-0.189278 -0.483395,-0.08924 -0.309717,-0.5995 -0.292349,-0.695989 0.04548,-0.219139 0.521073,-0.213133 0.647914,-0.231557 z"
           id="path61-4"
           sodipodi:nodetypes="zzzssszz" /><path
           style="fill:#bda9ff;fill-opacity:1;stroke:none;stroke-width:0.0527753;stroke-miterlimit:10;stroke-dasharray:none;stroke-opacity:1"
           d="m 20.852702,10.955394 c 0,0 0.455072,0.263174 0.655451,0.505633 0.490244,0.593196 0.643156,1.866588 1.12363,2.247261 0.400704,0.317471 1.298527,0.264917 1.619901,0.486906 0.259163,0.179016 0.29741,0.402188 0.344254,0.480332 0.0113,0.01875 0.02298,0.02916 0.03839,0.02859 0.0796,-0.0029 0.03908,-0.318613 0.0022,-0.499557 -0.0368,-0.180944 -0.05153,-0.255931 -0.04377,-0.47956 0.0077,-0.223627 0.03622,-0.365818 -0.04732,-0.367464 -0.08353,-0.0016 -0.137269,0.393919 -0.241175,0.465649 -0.10391,0.07173 -0.551884,-0.02991 -0.745547,-0.04935 -0.193663,-0.01944 -0.54335,-0.09853 -0.758451,-0.29027 -0.215068,-0.191749 -0.777096,-1.715408 -1.058052,-2.134903 -0.280956,-0.419496 -0.440088,-0.49627 -0.440088,-0.49627"
           id="path65"
           sodipodi:nodetypes="czzssszzzzzzzc" /></g></g><text
       xml:space="preserve"
       style="font-weight:bold;font-size:3.59311px;line-height:1;font-family:Inter;-inkscape-font-specification:'Inter Bold';letter-spacing:0px;fill:#6f43ff;fill-opacity:1;stroke:#3900f5;stroke-width:0.1;stroke-miterlimit:10;stroke-dasharray:none;stroke-opacity:1"
       x="-0.2031412"
       y="26.669737"
       id="text62"><tspan
         sodipodi:role="line"
         style="font-size:3.59311px;fill:#000000;fill-opacity:1;stroke:none;stroke-width:0.1;stroke-opacity:1"
         x="-0.2031412"
         y="26.669737"
         id="tspan63">The REPAIR Lab</tspan></text></g></svg>
